999
"DXF R12 Output" (www.mydxf.blogspot.com)
 0 
SECTION
 2 
HEADER
 9 
$ACADVER
 1 
AC1009
 9 
$EXTMIN
 10 
 0 
 20 
 0 
 9 
$EXTMAX
 10 
 8.5 
 20 
 11 
 0 
ENDSEC
 0 
SECTION
 2 
ENTITIES
0
LINE
8
Calque 1
10
51.712800
20
2.351950
11
50.873054
21
2.837818
0
LINE
8
Calque 1
10
50.873054
20
2.837818
11
50.444710
21
3.742240
0
LINE
8
Calque 1
10
50.444710
20
3.742240
11
50.396243
21
4.528287
0
LINE
8
Calque 1
10
50.396243
20
4.528287
11
50.571926
21
5.255310
0
LINE
8
Calque 1
10
50.571926
20
5.255310
11
50.943408
21
5.854585
0
LINE
8
Calque 1
10
50.943408
20
5.854585
11
51.482340
21
6.257390
0
LINE
8
Calque 1
10
51.482340
20
6.257390
11
52.195248
21
6.382556
0
LINE
8
Calque 1
10
52.195248
20
6.382556
11
52.891760
21
6.256665
0
LINE
8
Calque 1
10
52.891760
20
6.256665
11
53.515128
21
5.660887
0
LINE
8
Calque 1
10
53.515128
20
5.660887
11
53.687067
21
4.744095
0
LINE
8
Calque 1
10
53.687067
20
4.744095
11
53.626987
21
4.319799
0
LINE
8
Calque 1
10
53.626987
20
4.319799
11
52.468187
21
4.260479
0
LINE
8
Calque 1
10
52.468187
20
4.260479
11
51.346000
21
4.260480
0
LINE
8
Calque 1
10
51.346000
20
4.260480
11
51.381390
21
4.043987
0
LINE
8
Calque 1
10
51.381390
20
4.043987
11
51.729088
21
3.249132
0
LINE
8
Calque 1
10
51.729088
20
3.249132
11
52.363697
21
2.986024
0
LINE
8
Calque 1
10
52.363697
20
2.986024
11
53.206998
21
3.059026
0
LINE
8
Calque 1
10
53.206998
20
3.059026
11
53.525463
21
3.125746
0
LINE
8
Calque 1
10
53.525463
20
3.125746
11
53.512733
21
2.791435
0
LINE
8
Calque 1
10
53.512733
20
2.791435
11
53.479923
21
2.477218
0
LINE
8
Calque 1
10
53.479923
20
2.477218
11
53.219766
21
2.397638
0
LINE
8
Calque 1
10
53.219766
20
2.397638
11
52.449754
21
2.294749
0
LINE
8
Calque 1
10
52.449754
20
2.294749
11
51.712826
21
2.352048
0
LINE
8
Calque 1
10
51.712826
20
2.352048
11
51.712800
21
2.351950
0
LINE
8
Calque 1
10
52.284634
20
4.599430
11
52.781295
21
4.632320
0
LINE
8
Calque 1
10
52.781295
20
4.632320
11
52.780095
21
4.968480
0
LINE
8
Calque 1
10
52.780095
20
4.968480
11
52.606860
21
5.645283
0
LINE
8
Calque 1
10
52.606860
20
5.645283
11
52.134264
21
5.890252
0
LINE
8
Calque 1
10
52.134264
20
5.890252
11
51.643671
21
5.592695
0
LINE
8
Calque 1
10
51.643671
20
5.592695
11
51.374540
21
4.858922
0
LINE
8
Calque 1
10
51.374540
20
4.858922
11
51.340880
21
4.566020
0
LINE
8
Calque 1
10
51.340880
20
4.566020
11
51.564389
21
4.566274
0
LINE
8
Calque 1
10
51.564389
20
4.566274
11
52.284555
21
4.599424
0
LINE
8
Calque 1
10
52.284555
20
4.599424
11
52.284634
21
4.599430
0
LINE
8
Calque 1
10
59.123264
20
2.303930
11
58.677544
21
2.408532
0
LINE
8
Calque 1
10
58.677544
20
2.408532
11
58.379008
21
2.499768
0
LINE
8
Calque 1
10
58.379008
20
2.499768
11
58.333701
21
2.654161
0
LINE
8
Calque 1
10
58.333701
20
2.654161
11
58.365781
21
3.053856
0
LINE
8
Calque 1
10
58.365781
20
3.053856
11
58.397861
21
3.287861
0
LINE
8
Calque 1
10
58.397861
20
3.287861
11
58.593457
21
3.188071
0
LINE
8
Calque 1
10
58.593457
20
3.188071
11
59.600755
21
2.945092
0
LINE
8
Calque 1
10
59.600755
20
2.945092
11
59.993424
21
3.025395
0
LINE
8
Calque 1
10
59.993424
20
3.025395
11
60.216717
21
3.237331
0
LINE
8
Calque 1
10
60.216717
20
3.237331
11
60.257815
21
3.459450
0
LINE
8
Calque 1
10
60.257815
20
3.459450
11
60.158602
21
3.659362
0
LINE
8
Calque 1
10
60.158602
20
3.659362
11
59.418964
21
4.126668
0
LINE
8
Calque 1
10
59.418964
20
4.126668
11
58.648198
21
4.647144
0
LINE
8
Calque 1
10
58.648198
20
4.647144
11
58.435598
21
5.245348
0
LINE
8
Calque 1
10
58.435598
20
5.245348
11
58.495776
21
5.622918
0
LINE
8
Calque 1
10
58.495776
20
5.622918
11
58.706154
21
5.933112
0
LINE
8
Calque 1
10
58.706154
20
5.933112
11
59.060361
21
6.197150
0
LINE
8
Calque 1
10
59.060361
20
6.197150
11
59.547794
21
6.351296
0
LINE
8
Calque 1
10
59.547794
20
6.351296
11
60.363396
21
6.369818
0
LINE
8
Calque 1
10
60.363396
20
6.369818
11
61.026564
21
6.202050
0
LINE
8
Calque 1
10
61.026564
20
6.202050
11
61.060384
21
5.802414
0
LINE
8
Calque 1
10
61.060384
20
5.802414
11
61.024754
21
5.447382
0
LINE
8
Calque 1
10
61.024754
20
5.447382
11
60.710778
21
5.576329
0
LINE
8
Calque 1
10
60.710778
20
5.576329
11
59.757344
21
5.707652
0
LINE
8
Calque 1
10
59.757344
20
5.707652
11
59.461895
21
5.550876
0
LINE
8
Calque 1
10
59.461895
20
5.550876
11
59.352538
21
5.260956
0
LINE
8
Calque 1
10
59.352538
20
5.260956
11
59.541307
21
4.933439
0
LINE
8
Calque 1
10
59.541307
20
4.933439
11
60.161582
21
4.545874
0
LINE
8
Calque 1
10
60.161582
20
4.545874
11
60.993439
21
3.943072
0
LINE
8
Calque 1
10
60.993439
20
3.943072
11
61.153484
21
3.619038
0
LINE
8
Calque 1
10
61.153484
20
3.619038
11
61.166402
21
3.249644
0
LINE
8
Calque 1
10
61.166402
20
3.249644
11
60.985204
21
2.798670
0
LINE
8
Calque 1
10
60.985204
20
2.798670
11
60.549968
21
2.473863
0
LINE
8
Calque 1
10
60.549968
20
2.473863
11
59.720141
21
2.294134
0
LINE
8
Calque 1
10
59.720141
20
2.294134
11
59.123309
21
2.303934
0
LINE
8
Calque 1
10
59.123309
20
2.303934
11
59.123264
21
2.303930
0
LINE
8
Calque 1
10
37.408300
20
2.437220
11
38.900010
21
7.219890
0
LINE
8
Calque 1
10
38.900010
20
7.219890
11
38.979380
21
7.505073
0
LINE
8
Calque 1
10
38.979380
20
7.505073
11
39.575262
21
7.537013
0
LINE
8
Calque 1
10
39.575262
20
7.537013
11
40.205308
21
7.532013
0
LINE
8
Calque 1
10
40.205308
20
7.532013
11
40.983134
21
5.016693
0
LINE
8
Calque 1
10
40.983134
20
5.016693
11
41.758005
21
2.456983
0
LINE
8
Calque 1
10
41.758005
20
2.456983
11
41.307730
21
2.375653
0
LINE
8
Calque 1
10
41.307730
20
2.375653
11
40.826300
21
2.375650
0
LINE
8
Calque 1
10
40.826300
20
2.375650
11
40.659790
21
2.986923
0
LINE
8
Calque 1
10
40.659790
20
2.986923
11
40.493288
21
3.598196
0
LINE
8
Calque 1
10
40.493288
20
3.598196
11
39.560300
21
3.598190
0
LINE
8
Calque 1
10
39.560300
20
3.598190
11
38.627300
21
3.598190
0
LINE
8
Calque 1
10
38.627300
20
3.598190
11
38.543750
21
3.305288
0
LINE
8
Calque 1
10
38.543750
20
3.305288
11
38.371923
21
2.706750
0
LINE
8
Calque 1
10
38.371923
20
2.706750
11
38.283643
21
2.401114
0
LINE
8
Calque 1
10
38.283643
20
2.401114
11
37.834335
21
2.386304
0
LINE
8
Calque 1
10
37.834335
20
2.386304
11
37.408302
21
2.437244
0
LINE
8
Calque 1
10
37.408302
20
2.437244
11
37.408300
21
2.437220
0
LINE
8
Calque 1
10
40.326180
20
4.171240
11
39.946165
21
5.503730
0
LINE
8
Calque 1
10
39.946165
20
5.503730
11
39.570318
21
6.791010
0
LINE
8
Calque 1
10
39.570318
20
6.791010
11
39.264409
21
5.802365
0
LINE
8
Calque 1
10
39.264409
20
5.802365
11
38.878521
21
4.451415
0
LINE
8
Calque 1
10
38.878521
20
4.451415
11
38.780081
21
4.107573
0
LINE
8
Calque 1
10
38.780081
20
4.107573
11
39.564500
21
4.107570
0
LINE
8
Calque 1
10
39.564500
20
4.107570
11
40.326235
21
4.171240
0
LINE
8
Calque 1
10
40.326235
20
4.171240
11
40.326180
21
4.171240
0
LINE
8
Calque 1
10
42.387880
20
3.789191
11
42.338100
21
5.736241
0
LINE
8
Calque 1
10
42.338100
20
5.736241
11
42.327050
21
6.302783
0
LINE
8
Calque 1
10
42.327050
20
6.302783
11
42.835290
21
6.367283
0
LINE
8
Calque 1
10
42.835290
20
6.367283
11
43.306477
21
6.398723
0
LINE
8
Calque 1
10
43.306477
20
6.398723
11
43.306500
21
6.088920
0
LINE
8
Calque 1
10
43.306500
20
6.088920
11
43.306500
21
5.779120
0
LINE
8
Calque 1
10
43.306500
20
5.779120
11
43.557744
21
6.005011
0
LINE
8
Calque 1
10
43.557744
20
6.005011
11
44.060325
21
6.305879
0
LINE
8
Calque 1
10
44.060325
20
6.305879
11
44.589877
21
6.385323
0
LINE
8
Calque 1
10
44.589877
20
6.385323
11
45.058093
21
6.248430
0
LINE
8
Calque 1
10
45.058093
20
6.248430
11
45.376664
21
5.900282
0
LINE
8
Calque 1
10
45.376664
20
5.900282
11
45.471434
21
5.700360
0
LINE
8
Calque 1
10
45.471434
20
5.700360
11
45.765473
21
5.972053
0
LINE
8
Calque 1
10
45.765473
20
5.972053
11
46.462628
21
6.365283
0
LINE
8
Calque 1
10
46.462628
20
6.365283
11
47.152433
21
6.303558
0
LINE
8
Calque 1
10
47.152433
20
6.303558
11
47.659396
21
5.776769
0
LINE
8
Calque 1
10
47.659396
20
5.776769
11
47.738246
21
3.981849
0
LINE
8
Calque 1
10
47.738246
20
3.981849
11
47.738200
21
2.375610
0
LINE
8
Calque 1
10
47.738200
20
2.375610
11
47.282600
21
2.375610
0
LINE
8
Calque 1
10
47.282600
20
2.375610
11
46.827000
21
2.375610
0
LINE
8
Calque 1
10
46.827000
20
2.375610
11
46.811440
21
3.865590
0
LINE
8
Calque 1
10
46.811440
20
3.865590
11
46.782447
21
5.179540
0
LINE
8
Calque 1
10
46.782447
20
5.179540
11
46.679158
21
5.519210
0
LINE
8
Calque 1
10
46.679158
20
5.519210
11
46.244388
21
5.724757
0
LINE
8
Calque 1
10
46.244388
20
5.724757
11
45.699384
21
5.499480
0
LINE
8
Calque 1
10
45.699384
20
5.499480
11
45.547857
21
5.371984
0
LINE
8
Calque 1
10
45.547857
20
5.371984
11
45.547800
21
3.873800
0
LINE
8
Calque 1
10
45.547800
20
3.873800
11
45.547800
21
2.375610
0
LINE
8
Calque 1
10
45.547800
20
2.375610
11
45.094100
21
2.375610
0
LINE
8
Calque 1
10
45.094100
20
2.375610
11
44.640300
21
2.375610
0
LINE
8
Calque 1
10
44.640300
20
2.375610
11
44.622400
21
3.814650
0
LINE
8
Calque 1
10
44.622400
20
3.814650
11
44.564893
21
5.240271
0
LINE
8
Calque 1
10
44.564893
20
5.240271
11
44.317147
21
5.650370
0
LINE
8
Calque 1
10
44.317147
20
5.650370
11
43.952956
21
5.717852
0
LINE
8
Calque 1
10
43.952956
20
5.717852
11
43.514412
21
5.531047
0
LINE
8
Calque 1
10
43.514412
20
5.531047
11
43.306449
21
5.380402
0
LINE
8
Calque 1
10
43.306449
20
5.380402
11
43.306500
21
3.878010
0
LINE
8
Calque 1
10
43.306500
20
3.878010
11
43.306500
21
2.375610
0
LINE
8
Calque 1
10
43.306500
20
2.375610
11
42.848000
21
2.375610
0
LINE
8
Calque 1
10
42.848000
20
2.375610
11
42.389600
21
2.375610
0
LINE
8
Calque 1
10
42.389600
20
2.375610
11
42.388000
21
3.789180
0
LINE
8
Calque 1
10
42.388000
20
3.789180
11
42.387880
21
3.789191
0
LINE
8
Calque 1
10
48.755320
20
3.789191
11
48.705540
21
5.736241
0
LINE
8
Calque 1
10
48.705540
20
5.736241
11
48.694490
21
6.302783
0
LINE
8
Calque 1
10
48.694490
20
6.302783
11
49.202730
21
6.367283
0
LINE
8
Calque 1
10
49.202730
20
6.367283
11
49.673917
21
6.398723
0
LINE
8
Calque 1
10
49.673917
20
6.398723
11
49.673900
21
4.387170
0
LINE
8
Calque 1
10
49.673900
20
4.387170
11
49.673900
21
2.375610
0
LINE
8
Calque 1
10
49.673900
20
2.375610
11
49.215500
21
2.375610
0
LINE
8
Calque 1
10
49.215500
20
2.375610
11
48.757000
21
2.375610
0
LINE
8
Calque 1
10
48.757000
20
2.375610
11
48.755400
21
3.789180
0
LINE
8
Calque 1
10
48.755400
20
3.789180
11
48.755320
21
3.789191
0
LINE
8
Calque 1
10
54.460540
20
3.789191
11
54.410760
21
5.736241
0
LINE
8
Calque 1
10
54.410760
20
5.736241
11
54.399710
21
6.302783
0
LINE
8
Calque 1
10
54.399710
20
6.302783
11
54.907952
21
6.367283
0
LINE
8
Calque 1
10
54.907952
20
6.367283
11
55.379142
21
6.398723
0
LINE
8
Calque 1
10
55.379142
20
6.398723
11
55.379200
21
6.083310
0
LINE
8
Calque 1
10
55.379200
20
6.083310
11
55.379200
21
5.767890
0
LINE
8
Calque 1
10
55.379200
20
5.767890
11
55.570225
21
5.951115
0
LINE
8
Calque 1
10
55.570225
20
5.951115
11
56.036027
21
6.263640
0
LINE
8
Calque 1
10
56.036027
20
6.263640
11
56.544466
21
6.390006
0
LINE
8
Calque 1
10
56.544466
20
6.390006
11
57.026135
21
6.325852
0
LINE
8
Calque 1
10
57.026135
20
6.325852
11
57.411625
21
6.066818
0
LINE
8
Calque 1
10
57.411625
20
6.066818
11
57.617479
21
5.700811
0
LINE
8
Calque 1
10
57.617479
20
5.700811
11
57.671199
21
3.942001
0
LINE
8
Calque 1
10
57.671199
20
3.942001
11
57.671557
21
2.375611
0
LINE
8
Calque 1
10
57.671557
20
2.375611
11
57.213100
21
2.375610
0
LINE
8
Calque 1
10
57.213100
20
2.375610
11
56.754600
21
2.375610
0
LINE
8
Calque 1
10
56.754600
20
2.375610
11
56.753400
21
3.789180
0
LINE
8
Calque 1
10
56.753400
20
3.789180
11
56.657980
21
5.410390
0
LINE
8
Calque 1
10
56.657980
20
5.410390
11
56.228760
21
5.728000
0
LINE
8
Calque 1
10
56.228760
20
5.728000
11
55.612700
21
5.547910
0
LINE
8
Calque 1
10
55.612700
20
5.547910
11
55.404649
21
5.401717
0
LINE
8
Calque 1
10
55.404649
20
5.401717
11
55.391139
21
3.888657
0
LINE
8
Calque 1
10
55.391139
20
3.888657
11
55.377639
21
2.375607
0
LINE
8
Calque 1
10
55.377639
20
2.375607
11
54.919900
21
2.375610
0
LINE
8
Calque 1
10
54.919900
20
2.375610
11
54.462200
21
2.375610
0
LINE
8
Calque 1
10
54.462200
20
2.375610
11
54.460600
21
3.789180
0
LINE
8
Calque 1
10
54.460600
20
3.789180
11
54.460540
21
3.789191
0
LINE
8
Calque 1
10
48.821330
20
7.139931
11
48.676819
21
7.395477
0
LINE
8
Calque 1
10
48.676819
20
7.395477
11
48.805966
21
7.875898
0
LINE
8
Calque 1
10
48.805966
20
7.875898
11
49.283072
21
8.080658
0
LINE
8
Calque 1
10
49.283072
20
8.080658
11
49.595938
21
7.965696
0
LINE
8
Calque 1
10
49.595938
20
7.965696
11
49.756893
21
7.694992
0
LINE
8
Calque 1
10
49.756893
20
7.694992
11
49.738602
21
7.380617
0
LINE
8
Calque 1
10
49.738602
20
7.380617
11
49.513728
21
7.134646
0
LINE
8
Calque 1
10
49.513728
20
7.134646
11
48.821330
21
7.139946
0
LINE
8
Calque 1
10
48.821330
20
7.139946
11
48.821330
21
7.139931
0
LINE
8
Calque 1
10
8.234650
20
9.429190
11
7.413006
21
9.610153
0
LINE
8
Calque 1
10
7.413006
20
9.610153
11
6.740794
21
9.907154
0
LINE
8
Calque 1
10
6.740794
20
9.907154
11
6.214739
21
10.322138
0
LINE
8
Calque 1
10
6.214739
20
10.322138
11
5.831570
21
10.857050
0
LINE
8
Calque 1
10
5.831570
20
10.857050
11
5.532949
21
11.779470
0
LINE
8
Calque 1
10
5.532949
20
11.779470
11
5.471773
21
14.356410
0
LINE
8
Calque 1
10
5.471773
20
14.356410
11
5.499789
21
16.860766
0
LINE
8
Calque 1
10
5.499789
20
16.860766
11
5.644824
21
17.208295
0
LINE
8
Calque 1
10
5.644824
20
17.208295
11
5.952941
21
17.437690
0
LINE
8
Calque 1
10
5.952941
20
17.437690
11
7.126721
21
17.961364
0
LINE
8
Calque 1
10
7.126721
20
17.961364
11
7.241335
21
17.963064
0
LINE
8
Calque 1
10
7.241335
20
17.963064
11
7.242182
21
15.225064
0
LINE
8
Calque 1
10
7.242182
20
15.225064
11
7.284865
21
12.446803
0
LINE
8
Calque 1
10
7.284865
20
12.446803
11
7.526606
21
11.565974
0
LINE
8
Calque 1
10
7.526606
20
11.565974
11
7.870292
21
11.188123
0
LINE
8
Calque 1
10
7.870292
20
11.188123
11
8.387733
21
10.956892
0
LINE
8
Calque 1
10
8.387733
20
10.956892
11
9.470463
21
10.898472
0
LINE
8
Calque 1
10
9.470463
20
10.898472
11
10.374079
21
10.973512
0
LINE
8
Calque 1
10
10.374079
20
10.973512
11
10.526898
21
11.017122
0
LINE
8
Calque 1
10
10.526898
20
11.017122
11
10.552368
21
14.037052
0
LINE
8
Calque 1
10
10.552368
20
14.037052
11
10.577838
21
17.056982
0
LINE
8
Calque 1
10
10.577838
20
17.056982
11
10.832536
21
17.281657
0
LINE
8
Calque 1
10
10.832536
20
17.281657
11
12.068116
21
17.932556
0
LINE
8
Calque 1
10
12.068116
20
17.932556
11
12.335850
21
18.008696
0
LINE
8
Calque 1
10
12.335850
20
18.008696
11
12.322820
21
13.899386
0
LINE
8
Calque 1
10
12.322820
20
13.899386
11
12.309780
21
9.790086
0
LINE
8
Calque 1
10
12.309780
20
9.790086
11
11.831918
21
9.676326
0
LINE
8
Calque 1
10
11.831918
20
9.676326
11
9.964050
21
9.417475
0
LINE
8
Calque 1
10
9.964050
20
9.417475
11
8.234618
21
9.429143
0
LINE
8
Calque 1
10
8.234618
20
9.429143
11
8.234650
21
9.429190
0
LINE
8
Calque 1
10
32.386750
20
9.406640
11
31.640225
21
9.558000
0
LINE
8
Calque 1
10
31.640225
20
9.558000
11
31.039874
21
9.820290
0
LINE
8
Calque 1
10
31.039874
20
9.820290
11
30.599413
21
10.185242
0
LINE
8
Calque 1
10
30.599413
20
10.185242
11
30.332560
21
10.644590
0
LINE
8
Calque 1
10
30.332560
20
10.644590
11
30.241895
21
11.354355
0
LINE
8
Calque 1
10
30.241895
20
11.354355
11
30.361680
21
12.063640
0
LINE
8
Calque 1
10
30.361680
20
12.063640
11
30.765841
21
12.626467
0
LINE
8
Calque 1
10
30.765841
20
12.626467
11
31.372150
21
13.022140
0
LINE
8
Calque 1
10
31.372150
20
13.022140
11
32.682400
21
13.276666
0
LINE
8
Calque 1
10
32.682400
20
13.276666
11
33.340133
21
13.309606
0
LINE
8
Calque 1
10
33.340133
20
13.309606
11
33.729866
21
13.342546
0
LINE
8
Calque 1
10
33.729866
20
13.342546
11
33.729900
21
13.658600
0
LINE
8
Calque 1
10
33.729900
20
13.658600
11
33.669022
21
14.039014
0
LINE
8
Calque 1
10
33.669022
20
14.039014
11
33.478628
21
14.306273
0
LINE
8
Calque 1
10
33.478628
20
14.306273
11
32.662740
21
14.539763
0
LINE
8
Calque 1
10
32.662740
20
14.539763
11
31.929310
21
14.486719
0
LINE
8
Calque 1
10
31.929310
20
14.486719
11
31.202360
21
14.245434
0
LINE
8
Calque 1
10
31.202360
20
14.245434
11
30.819293
21
14.091645
0
LINE
8
Calque 1
10
30.819293
20
14.091645
11
30.814393
21
15.498115
0
LINE
8
Calque 1
10
30.814393
20
15.498115
11
31.623873
21
15.852235
0
LINE
8
Calque 1
10
31.623873
20
15.852235
11
32.711113
21
16.011317
0
LINE
8
Calque 1
10
32.711113
20
16.011317
11
33.784265
21
15.939458
0
LINE
8
Calque 1
10
33.784265
20
15.939458
11
34.589050
21
15.622640
0
LINE
8
Calque 1
10
34.589050
20
15.622640
11
35.129157
21
15.058449
0
LINE
8
Calque 1
10
35.129157
20
15.058449
11
35.408273
21
14.244467
0
LINE
8
Calque 1
10
35.408273
20
14.244467
11
35.419723
21
9.639887
0
LINE
8
Calque 1
10
35.419723
20
9.639887
11
34.668368
21
9.510361
0
LINE
8
Calque 1
10
34.668368
20
9.510361
11
32.386788
21
9.406587
0
LINE
8
Calque 1
10
32.386788
20
9.406587
11
32.386750
21
9.406640
0
LINE
8
Calque 1
10
33.538850
20
10.660500
11
33.729871
21
10.692080
0
LINE
8
Calque 1
10
33.729871
20
10.692080
11
33.729900
21
11.457100
0
LINE
8
Calque 1
10
33.729900
20
11.457100
11
33.729900
21
12.222200
0
LINE
8
Calque 1
10
33.729900
20
12.222200
11
33.180948
21
12.193230
0
LINE
8
Calque 1
10
33.180948
20
12.193230
11
32.465130
21
12.089545
0
LINE
8
Calque 1
10
32.465130
20
12.089545
11
32.074178
21
11.840836
0
LINE
8
Calque 1
10
32.074178
20
11.840836
11
31.950758
21
11.303397
0
LINE
8
Calque 1
10
31.950758
20
11.303397
11
32.220386
21
10.831646
0
LINE
8
Calque 1
10
32.220386
20
10.831646
11
32.811549
21
10.655549
0
LINE
8
Calque 1
10
32.811549
20
10.655549
11
33.538876
21
10.660503
0
LINE
8
Calque 1
10
33.538876
20
10.660503
11
33.538850
21
10.660500
0
LINE
8
Calque 1
10
38.100400
20
9.405860
11
37.085544
21
9.684730
0
LINE
8
Calque 1
10
37.085544
20
9.684730
11
36.540420
21
10.026100
0
LINE
8
Calque 1
10
36.540420
20
10.026100
11
36.527760
21
10.943894
0
LINE
8
Calque 1
10
36.527760
20
10.943894
11
36.557030
21
11.743906
0
LINE
8
Calque 1
10
36.557030
20
11.743906
11
36.952136
21
11.489088
0
LINE
8
Calque 1
10
36.952136
20
11.489088
11
37.690758
21
11.098500
0
LINE
8
Calque 1
10
37.690758
20
11.098500
11
38.723168
21
10.960821
0
LINE
8
Calque 1
10
38.723168
20
10.960821
11
39.665549
21
11.089255
0
LINE
8
Calque 1
10
39.665549
20
11.089255
11
40.026999
21
11.410062
0
LINE
8
Calque 1
10
40.026999
20
11.410062
11
40.147429
21
11.881028
0
LINE
8
Calque 1
10
40.147429
20
11.881028
11
40.083908
21
12.228243
0
LINE
8
Calque 1
10
40.083908
20
12.228243
11
39.863144
21
12.507549
0
LINE
8
Calque 1
10
39.863144
20
12.507549
11
38.783069
21
12.999048
0
LINE
8
Calque 1
10
38.783069
20
12.999048
11
37.721476
21
13.408248
0
LINE
8
Calque 1
10
37.721476
20
13.408248
11
37.063749
21
13.848307
0
LINE
8
Calque 1
10
37.063749
20
13.848307
11
36.547883
21
14.596345
0
LINE
8
Calque 1
10
36.547883
20
14.596345
11
36.378740
21
15.594417
0
LINE
8
Calque 1
10
36.378740
20
15.594417
11
36.491106
21
16.420552
0
LINE
8
Calque 1
10
36.491106
20
16.420552
11
36.824164
21
17.101888
0
LINE
8
Calque 1
10
36.824164
20
17.101888
11
37.371858
21
17.630106
0
LINE
8
Calque 1
10
37.371858
20
17.630106
11
38.128130
21
17.996887
0
LINE
8
Calque 1
10
38.128130
20
17.996887
11
39.231350
21
18.132149
0
LINE
8
Calque 1
10
39.231350
20
18.132149
11
40.368440
21
17.994920
0
LINE
8
Calque 1
10
40.368440
20
17.994920
11
41.030656
21
17.752569
0
LINE
8
Calque 1
10
41.030656
20
17.752569
11
41.378058
21
17.474581
0
LINE
8
Calque 1
10
41.378058
20
17.474581
11
41.421751
21
16.630789
0
LINE
8
Calque 1
10
41.421751
20
16.630789
11
41.404101
21
15.772714
0
LINE
8
Calque 1
10
41.404101
20
15.772714
11
40.971214
21
16.050634
0
LINE
8
Calque 1
10
40.971214
20
16.050634
11
40.150043
21
16.458076
0
LINE
8
Calque 1
10
40.150043
20
16.458076
11
39.292424
21
16.586626
0
LINE
8
Calque 1
10
39.292424
20
16.586626
11
38.643465
21
16.491996
0
LINE
8
Calque 1
10
38.643465
20
16.491996
11
38.214473
21
16.104215
0
LINE
8
Calque 1
10
38.214473
20
16.104215
11
38.131847
21
15.548653
0
LINE
8
Calque 1
10
38.131847
20
15.548653
11
38.477351
21
15.058632
0
LINE
8
Calque 1
10
38.477351
20
15.058632
11
39.519677
21
14.619362
0
LINE
8
Calque 1
10
39.519677
20
14.619362
11
40.776146
21
14.104501
0
LINE
8
Calque 1
10
40.776146
20
14.104501
11
41.476797
21
13.481252
0
LINE
8
Calque 1
10
41.476797
20
13.481252
11
41.770883
21
12.899323
0
LINE
8
Calque 1
10
41.770883
20
12.899323
11
41.906535
21
12.199309
0
LINE
8
Calque 1
10
41.906535
20
12.199309
11
41.877300
21
11.467994
0
LINE
8
Calque 1
10
41.877300
20
11.467994
11
41.676726
21
10.792162
0
LINE
8
Calque 1
10
41.676726
20
10.792162
11
40.987944
21
9.980938
0
LINE
8
Calque 1
10
40.987944
20
9.980938
11
39.892816
21
9.481872
0
LINE
8
Calque 1
10
39.892816
20
9.481872
11
38.100436
21
9.405872
0
LINE
8
Calque 1
10
38.100436
20
9.405872
11
38.100400
21
9.405860
0
LINE
8
Calque 1
10
44.765060
20
9.407660
11
44.019889
21
9.557666
0
LINE
8
Calque 1
10
44.019889
20
9.557666
11
43.419480
21
9.819648
0
LINE
8
Calque 1
10
43.419480
20
9.819648
11
42.978273
21
10.184908
0
LINE
8
Calque 1
10
42.978273
20
10.184908
11
42.710710
21
10.644750
0
LINE
8
Calque 1
10
42.710710
20
10.644750
11
42.620735
21
11.359275
0
LINE
8
Calque 1
10
42.620735
20
11.359275
11
42.714810
21
12.028810
0
LINE
8
Calque 1
10
42.714810
20
12.028810
11
43.193787
21
12.688594
0
LINE
8
Calque 1
10
43.193787
20
12.688594
11
43.993470
21
13.103060
0
LINE
8
Calque 1
10
43.993470
20
13.103060
11
45.236990
21
13.284738
0
LINE
8
Calque 1
10
45.236990
20
13.284738
11
46.102295
21
13.357648
0
LINE
8
Calque 1
10
46.102295
20
13.357648
11
46.119265
21
13.651441
0
LINE
8
Calque 1
10
46.119265
20
13.651441
11
46.045074
21
14.050948
0
LINE
8
Calque 1
10
46.045074
20
14.050948
11
45.827427
21
14.331267
0
LINE
8
Calque 1
10
45.827427
20
14.331267
11
44.941835
21
14.549561
0
LINE
8
Calque 1
10
44.941835
20
14.549561
11
44.254436
21
14.473882
0
LINE
8
Calque 1
10
44.254436
20
14.473882
11
43.580145
21
14.245359
0
LINE
8
Calque 1
10
43.580145
20
14.245359
11
43.197715
21
14.091859
0
LINE
8
Calque 1
10
43.197715
20
14.091859
11
43.192815
21
15.498329
0
LINE
8
Calque 1
10
43.192815
20
15.498329
11
44.002294
21
15.852450
0
LINE
8
Calque 1
10
44.002294
20
15.852450
11
45.089534
21
16.011532
0
LINE
8
Calque 1
10
45.089534
20
16.011532
11
46.169167
21
15.937514
0
LINE
8
Calque 1
10
46.169167
20
15.937514
11
46.977753
21
15.614691
0
LINE
8
Calque 1
10
46.977753
20
15.614691
11
47.516577
21
15.042208
0
LINE
8
Calque 1
10
47.516577
20
15.042208
11
47.786924
21
14.219212
0
LINE
8
Calque 1
10
47.786924
20
14.219212
11
47.798164
21
9.640102
0
LINE
8
Calque 1
10
47.798164
20
9.640102
11
45.751764
21
9.387368
0
LINE
8
Calque 1
10
45.751764
20
9.387368
11
44.765219
21
9.407678
0
LINE
8
Calque 1
10
44.765219
20
9.407678
11
44.765060
21
9.407660
0
LINE
8
Calque 1
10
46.052510
20
10.701450
11
46.108190
21
11.478686
0
LINE
8
Calque 1
10
46.108190
20
11.478686
11
46.108200
21
12.221500
0
LINE
8
Calque 1
10
46.108200
20
12.221500
11
45.560598
21
12.194590
0
LINE
8
Calque 1
10
45.560598
20
12.194590
11
44.604229
21
11.984801
0
LINE
8
Calque 1
10
44.604229
20
11.984801
11
44.391307
21
11.751191
0
LINE
8
Calque 1
10
44.391307
20
11.751191
11
44.325318
21
11.412847
0
LINE
8
Calque 1
10
44.325318
20
11.412847
11
44.492699
21
10.953193
0
LINE
8
Calque 1
10
44.492699
20
10.953193
11
44.914878
21
10.700575
0
LINE
8
Calque 1
10
44.914878
20
10.700575
11
45.581339
21
10.647635
0
LINE
8
Calque 1
10
45.581339
20
10.647635
11
46.052530
21
10.701425
0
LINE
8
Calque 1
10
46.052530
20
10.701425
11
46.052510
21
10.701450
0
LINE
8
Calque 1
10
57.926110
20
9.423610
11
56.814693
21
9.821137
0
LINE
8
Calque 1
10
56.814693
20
9.821137
11
56.000050
21
10.507928
0
LINE
8
Calque 1
10
56.000050
20
10.507928
11
55.498959
21
11.463045
0
LINE
8
Calque 1
10
55.498959
20
11.463045
11
55.328200
21
12.665550
0
LINE
8
Calque 1
10
55.328200
20
12.665550
11
55.418978
21
13.559439
0
LINE
8
Calque 1
10
55.418978
20
13.559439
11
55.709569
21
14.376050
0
LINE
8
Calque 1
10
55.709569
20
14.376050
11
56.180450
21
15.081497
0
LINE
8
Calque 1
10
56.180450
20
15.081497
11
56.804269
21
15.599492
0
LINE
8
Calque 1
10
56.804269
20
15.599492
11
57.562224
21
15.918644
0
LINE
8
Calque 1
10
57.562224
20
15.918644
11
58.435509
21
16.027560
0
LINE
8
Calque 1
10
58.435509
20
16.027560
11
59.209118
21
15.944973
0
LINE
8
Calque 1
10
59.209118
20
15.944973
11
59.864619
21
15.700982
0
LINE
8
Calque 1
10
59.864619
20
15.700982
11
60.391622
21
15.301243
0
LINE
8
Calque 1
10
60.391622
20
15.301243
11
60.779739
21
14.751410
0
LINE
8
Calque 1
10
60.779739
20
14.751410
11
61.043820
21
14.032202
0
LINE
8
Calque 1
10
61.043820
20
14.032202
11
61.107140
21
13.047600
0
LINE
8
Calque 1
10
61.107140
20
13.047600
11
61.109940
21
12.232566
0
LINE
8
Calque 1
10
61.109940
20
12.232566
11
59.059630
21
12.219256
0
LINE
8
Calque 1
10
59.059630
20
12.219256
11
57.009310
21
12.104090
0
LINE
8
Calque 1
10
57.009310
20
12.104090
11
57.405476
21
11.379017
0
LINE
8
Calque 1
10
57.405476
20
11.379017
11
58.146655
21
10.945033
0
LINE
8
Calque 1
10
58.146655
20
10.945033
11
59.122916
21
10.848942
0
LINE
8
Calque 1
10
59.122916
20
10.848942
11
59.875017
21
10.960401
0
LINE
8
Calque 1
10
59.875017
20
10.960401
11
60.562336
21
11.212879
0
LINE
8
Calque 1
10
60.562336
20
11.212879
11
60.931645
21
11.387045
0
LINE
8
Calque 1
10
60.931645
20
11.387045
11
60.931700
21
10.648300
0
LINE
8
Calque 1
10
60.931700
20
10.648300
11
60.931700
21
9.909460
0
LINE
8
Calque 1
10
60.931700
20
9.909460
11
60.613331
21
9.760485
0
LINE
8
Calque 1
10
60.613331
20
9.760485
11
59.287500
21
9.409702
0
LINE
8
Calque 1
10
59.287500
20
9.409702
11
57.926271
21
9.423608
0
LINE
8
Calque 1
10
57.926271
20
9.423608
11
57.926110
21
9.423610
0
LINE
8
Calque 1
10
59.556180
20
13.396070
11
59.292496
21
14.173242
0
LINE
8
Calque 1
10
59.292496
20
14.173242
11
59.011525
21
14.431050
0
LINE
8
Calque 1
10
59.011525
20
14.431050
11
58.628257
21
14.574361
0
LINE
8
Calque 1
10
58.628257
20
14.574361
11
57.787446
21
14.471407
0
LINE
8
Calque 1
10
57.787446
20
14.471407
11
57.423072
21
14.194117
0
LINE
8
Calque 1
10
57.423072
20
14.194117
11
57.135093
21
13.723369
0
LINE
8
Calque 1
10
57.135093
20
13.723369
11
57.016559
21
13.451993
0
LINE
8
Calque 1
10
57.016559
20
13.451993
11
57.081497
21
13.320891
0
LINE
8
Calque 1
10
57.081497
20
13.320891
11
58.282693
21
13.276818
0
LINE
8
Calque 1
10
58.282693
20
13.276818
11
59.556200
21
13.276800
0
LINE
8
Calque 1
10
59.556200
20
13.276800
11
59.556180
21
13.396070
0
LINE
8
Calque 1
10
13.977580
20
9.548700
11
13.926640
21
12.515200
0
LINE
8
Calque 1
10
13.926640
20
12.515200
11
13.939800
21
15.440280
0
LINE
8
Calque 1
10
13.939800
20
15.440280
11
14.074038
21
15.504610
0
LINE
8
Calque 1
10
14.074038
20
15.504610
11
16.276528
21
15.985174
0
LINE
8
Calque 1
10
16.276528
20
15.985174
11
17.545661
21
15.984724
0
LINE
8
Calque 1
10
17.545661
20
15.984724
11
18.506214
21
15.721478
0
LINE
8
Calque 1
10
18.506214
20
15.721478
11
19.170527
21
15.189398
0
LINE
8
Calque 1
10
19.170527
20
15.189398
11
19.550938
21
14.382444
0
LINE
8
Calque 1
10
19.550938
20
14.382444
11
19.645028
21
11.773994
0
LINE
8
Calque 1
10
19.645028
20
11.773994
11
19.645100
21
9.532650
0
LINE
8
Calque 1
10
19.645100
20
9.532650
11
18.804600
21
9.532650
0
LINE
8
Calque 1
10
18.804600
20
9.532650
11
17.964100
21
9.532650
0
LINE
8
Calque 1
10
17.964100
20
9.532650
11
17.938630
21
11.672110
0
LINE
8
Calque 1
10
17.938630
20
11.672110
11
17.854390
21
13.942070
0
LINE
8
Calque 1
10
17.854390
20
13.942070
11
17.239603
21
14.445253
0
LINE
8
Calque 1
10
17.239603
20
14.445253
11
16.792490
21
14.498963
0
LINE
8
Calque 1
10
16.792490
20
14.498963
11
15.685050
21
14.319002
0
LINE
8
Calque 1
10
15.685050
20
14.319002
11
15.583171
21
11.908822
0
LINE
8
Calque 1
10
15.583171
20
11.908822
11
15.569941
21
9.532652
0
LINE
8
Calque 1
10
15.569941
20
9.532652
11
14.805848
21
9.519952
0
LINE
8
Calque 1
10
14.805848
20
9.519952
11
13.977659
21
9.548672
0
LINE
8
Calque 1
10
13.977659
20
9.548672
11
13.977580
21
9.548700
0
LINE
8
Calque 1
10
21.147740
20
12.203070
11
21.147800
21
14.899000
0
LINE
8
Calque 1
10
21.147800
20
14.899000
11
21.275965
21
15.051316
0
LINE
8
Calque 1
10
21.275965
20
15.051316
11
22.293575
21
15.698085
0
LINE
8
Calque 1
10
22.293575
20
15.698085
11
22.694753
21
15.823728
0
LINE
8
Calque 1
10
22.694753
20
15.823728
11
22.797567
21
11.372368
0
LINE
8
Calque 1
10
22.797567
20
11.372368
11
22.761777
21
9.507218
0
LINE
8
Calque 1
10
22.761777
20
9.507218
11
21.954800
21
9.507180
0
LINE
8
Calque 1
10
21.954800
20
9.507180
11
21.147800
21
9.507180
0
LINE
8
Calque 1
10
21.147800
20
9.507180
11
21.147740
21
12.203070
0
LINE
8
Calque 1
10
24.458810
20
13.239900
11
24.541340
21
17.090440
0
LINE
8
Calque 1
10
24.541340
20
17.090440
11
25.204794
21
17.600305
0
LINE
8
Calque 1
10
25.204794
20
17.600305
11
26.101610
21
17.983185
0
LINE
8
Calque 1
10
26.101610
20
17.983185
11
26.241694
21
18.016025
0
LINE
8
Calque 1
10
26.241694
20
18.016025
11
26.241800
21
16.011200
0
LINE
8
Calque 1
10
26.241800
20
16.011200
11
26.275470
21
12.546340
0
LINE
8
Calque 1
10
26.275470
20
12.546340
11
26.309140
21
11.086270
0
LINE
8
Calque 1
10
26.309140
20
11.086270
11
27.931000
21
11.086300
0
LINE
8
Calque 1
10
27.931000
20
11.086300
11
29.552800
21
11.086300
0
LINE
8
Calque 1
10
29.552800
20
11.086300
11
29.552800
21
10.296700
0
LINE
8
Calque 1
10
29.552800
20
10.296700
11
29.552800
21
9.507180
0
LINE
8
Calque 1
10
29.552800
20
9.507180
11
27.005900
21
9.507180
0
LINE
8
Calque 1
10
27.005900
20
9.507180
11
24.458900
21
9.507180
0
LINE
8
Calque 1
10
24.458900
20
9.507180
11
24.458810
21
13.239900
0
LINE
8
Calque 1
10
49.266410
20
13.215170
11
49.266400
21
16.923100
0
LINE
8
Calque 1
10
49.266400
20
16.923100
11
49.482892
21
17.131610
0
LINE
8
Calque 1
10
49.482892
20
17.131610
11
50.097079
21
17.569327
0
LINE
8
Calque 1
10
50.097079
20
17.569327
11
50.781852
21
17.834264
0
LINE
8
Calque 1
10
50.781852
20
17.834264
11
50.947407
21
17.869324
0
LINE
8
Calque 1
10
50.947407
20
17.869324
11
50.947400
21
13.688300
0
LINE
8
Calque 1
10
50.947400
20
13.688300
11
50.947400
21
9.507180
0
LINE
8
Calque 1
10
50.947400
20
9.507180
11
50.106900
21
9.507180
0
LINE
8
Calque 1
10
50.106900
20
9.507180
11
49.266400
21
9.507180
0
LINE
8
Calque 1
10
49.266400
20
9.507180
11
49.266410
21
13.215170
0
LINE
8
Calque 1
10
52.526540
20
13.218770
11
52.526600
21
16.930400
0
LINE
8
Calque 1
10
52.526600
20
16.930400
11
52.774531
21
17.162312
0
LINE
8
Calque 1
10
52.774531
20
17.162312
11
53.295517
21
17.532591
0
LINE
8
Calque 1
10
53.295517
20
17.532591
11
54.164639
21
17.861251
0
LINE
8
Calque 1
10
54.164639
20
17.861251
11
54.207609
21
13.684211
0
LINE
8
Calque 1
10
54.207609
20
13.684211
11
54.207600
21
9.507160
0
LINE
8
Calque 1
10
54.207600
20
9.507160
11
53.367100
21
9.507160
0
LINE
8
Calque 1
10
53.367100
20
9.507160
11
52.526600
21
9.507160
0
LINE
8
Calque 1
10
52.526600
20
9.507160
11
52.526540
21
13.218770
0
LINE
8
Calque 1
10
21.529900
20
16.926900
11
21.057157
21
17.410534
0
LINE
8
Calque 1
10
21.057157
20
17.410534
11
20.997023
21
18.073230
0
LINE
8
Calque 1
10
20.997023
20
18.073230
11
21.342632
21
18.638471
0
LINE
8
Calque 1
10
21.342632
20
18.638471
11
21.966314
21
18.845753
0
LINE
8
Calque 1
10
21.966314
20
18.845753
11
22.447668
21
18.731370
0
LINE
8
Calque 1
10
22.447668
20
18.731370
11
22.796743
21
18.428057
0
LINE
8
Calque 1
10
22.796743
20
18.428057
11
22.970002
21
17.997022
0
LINE
8
Calque 1
10
22.970002
20
17.997022
11
22.923906
21
17.499473
0
LINE
8
Calque 1
10
22.923906
20
17.499473
11
22.384773
21
16.912728
0
LINE
8
Calque 1
10
22.384773
20
16.912728
11
21.529900
21
16.926898
0
LINE
8
Calque 1
10
21.529900
20
16.926898
11
21.529900
21
16.926900
0
LINE
8
Calque 1
10
56.092400
20
18.793260
11
57.491100
21
20.688340
0
LINE
8
Calque 1
10
57.491100
20
20.688340
11
59.647604
21
22.976861
0
LINE
8
Calque 1
10
59.647604
20
22.976861
11
61.865660
21
24.726950
0
LINE
8
Calque 1
10
61.865660
20
24.726950
11
64.013980
21
25.840100
0
LINE
8
Calque 1
10
64.013980
20
25.840100
11
64.337439
21
24.700580
0
LINE
8
Calque 1
10
64.337439
20
24.700580
11
64.429729
21
24.152234
0
LINE
8
Calque 1
10
64.429729
20
24.152234
11
64.680071
21
24.118834
0
LINE
8
Calque 1
10
64.680071
20
24.118834
11
65.618090
21
24.028324
0
LINE
8
Calque 1
10
65.618090
20
24.028324
11
67.935850
21
23.573744
0
LINE
8
Calque 1
10
67.935850
20
23.573744
11
67.146283
21
23.212022
0
LINE
8
Calque 1
10
67.146283
20
23.212022
11
64.543663
21
22.141142
0
LINE
8
Calque 1
10
64.543663
20
22.141142
11
64.430666
21
21.494912
0
LINE
8
Calque 1
10
64.430666
20
21.494912
11
64.162802
21
19.661283
0
LINE
8
Calque 1
10
64.162802
20
19.661283
11
63.804382
21
18.737922
0
LINE
8
Calque 1
10
63.804382
20
18.737922
11
62.705522
21
19.675291
0
LINE
8
Calque 1
10
62.705522
20
19.675291
11
61.169392
21
20.900591
0
LINE
8
Calque 1
10
61.169392
20
20.900591
11
58.086722
21
19.587251
0
LINE
8
Calque 1
10
58.086722
20
19.587251
11
57.645484
21
19.389385
0
LINE
8
Calque 1
10
57.645484
20
19.389385
11
56.983147
21
19.083418
0
LINE
8
Calque 1
10
56.983147
20
19.083418
11
56.255932
21
18.763337
0
LINE
8
Calque 1
10
56.255932
20
18.763337
11
56.092404
21
18.793266
0
LINE
8
Calque 1
10
56.092404
20
18.793266
11
56.092400
21
18.793260
0
LINE
8
Calque 1
10
57.172860
20
22.636630
11
56.412761
21
22.974609
0
LINE
8
Calque 1
10
56.412761
20
22.974609
11
58.231851
21
23.487155
0
LINE
8
Calque 1
10
58.231851
20
23.487155
11
60.044181
21
23.808656
0
LINE
8
Calque 1
10
60.044181
20
23.808656
11
59.618035
21
23.475841
0
LINE
8
Calque 1
10
59.618035
20
23.475841
11
58.690313
21
22.753748
0
LINE
8
Calque 1
10
58.690313
20
22.753748
11
58.079035
21
22.351213
0
LINE
8
Calque 1
10
58.079035
20
22.351213
11
57.172858
21
22.636630
0
LINE
8
Calque 1
10
57.172858
20
22.636630
11
57.172860
21
22.636630
 0 
ENDSEC
 0 
EOF